<svg width="209" height="71" viewBox="0 0 209 71" fill="none" xmlns="http://www.w3.org/2000/svg">
<rect y="0.851074" width="69.2974" height="69.2974" rx="34.6487" fill="white" fill-opacity="0.05"/>
<g clip-path="url(#clip0_389_3648)">
<path d="M9.96021 31.8823C9.96021 31.8534 9.96021 31.7956 9.98911 31.7667C9.96021 31.7956 9.96021 31.8245 9.96021 31.8823Z" fill="#FFFBF8"/>
<path d="M9.84766 32.7249C9.84766 32.696 9.84766 32.6671 9.84766 32.6382C9.87656 32.6671 9.84766 32.696 9.84766 32.7249Z" fill="#FFFBF8"/>
<path d="M9.76426 33.6729V33.644C9.76426 33.644 9.76426 33.644 9.76426 33.6729C9.76426 33.7597 9.73535 33.8753 9.73535 33.962C9.76426 33.8464 9.76426 33.7597 9.76426 33.6729Z" fill="#FFFBF8"/>
<path d="M22.7354 43.8818C22.7354 43.9107 22.7643 43.9396 22.7643 43.9396C22.7354 43.9396 22.7354 43.9107 22.7354 43.8818Z" fill="#FFFBF8"/>
<path d="M26.4976 21.4171C28.6367 19.1334 31.2384 17.3412 34.1869 16.2138C35.083 15.8669 35.9792 15.5778 36.9042 15.3755C35.9792 15.6067 35.083 15.8669 34.1869 16.2138C31.2095 17.3701 28.6078 19.1334 26.4976 21.4171Z" fill="#FFFBF8"/>
<path d="M30.9229 53.1861C28.4657 51.7118 26.3266 49.7172 24.65 47.3179C24.0429 46.4507 23.5226 45.5545 23.0601 44.6006C23.5226 45.5256 24.0429 46.4507 24.65 47.3179C26.3266 49.6883 28.4657 51.6829 30.9229 53.1861Z" fill="#FFFBF8"/>
<path d="M9.98683 31.6792V31.7371C9.98683 31.766 9.98683 31.8238 9.95792 31.8527V31.8816C9.95792 31.9105 9.95792 31.9394 9.95792 31.9683V32.0261V32.055V32.0839V32.1129C9.95792 32.1996 9.92901 32.2863 9.92901 32.373C9.92901 32.4597 9.90011 32.5176 9.90011 32.6043C9.90011 32.6332 9.90011 32.6621 9.90011 32.691C9.90011 32.7777 9.8712 32.8644 9.8712 32.9512C9.8712 33.009 9.8712 33.0957 9.84229 33.1535V33.2113C9.84229 33.2402 9.84229 33.2691 9.84229 33.2981C9.84229 33.327 9.84229 33.3559 9.84229 33.3848C9.84229 33.4137 9.84229 33.4137 9.84229 33.4426C9.84229 33.4715 9.84229 33.4715 9.84229 33.5004C9.84229 33.5293 9.84229 33.5582 9.84229 33.5871V33.616C9.84229 33.7028 9.81338 33.8184 9.81338 33.9051C9.81338 33.9629 9.81338 33.9918 9.81338 34.0496C9.81338 34.1075 9.81338 34.1364 9.81338 34.1942C9.81338 34.1942 9.81338 34.1942 9.81338 34.2231V34.252V34.2809V34.3098C9.81338 34.3676 9.81338 34.4254 9.81338 34.4833C9.81338 34.5122 9.81338 34.5411 9.81338 34.5411C9.81338 34.6567 9.81338 34.7434 9.81338 34.8301C9.81338 34.8591 9.81338 34.8591 9.81338 34.888V34.9169C9.81338 35.0036 9.81338 35.0903 9.81338 35.1481V35.2059V35.2348V35.3216C9.69775 35.4083 9.69775 35.4083 9.69775 35.4372C9.69775 35.4661 9.69775 35.4661 9.69775 35.495C9.69775 35.5239 9.69775 35.5239 9.69775 35.5528C9.69775 35.5817 9.69775 35.6106 9.69775 35.6106V35.6974V35.7552C9.75557 40.496 11.6635 44.9477 15.0456 48.2721C18.4278 51.5964 22.9084 53.4465 27.6781 53.4465C28.4297 53.4465 29.1813 53.3887 29.9329 53.302C30.2798 53.2731 30.5978 53.2152 30.9447 53.1574C28.4875 51.6831 26.3484 49.6885 24.6718 47.2892C24.0647 46.422 23.5444 45.5259 23.0819 44.5719C22.9662 44.3696 22.8795 44.1383 22.7928 43.936C22.7928 43.9071 22.7639 43.8782 22.7639 43.8782C21.6076 41.2476 21.0005 38.4147 21.0005 35.495C21.0005 31.2456 22.2725 27.1697 24.7007 23.6719C25.2499 22.8625 25.857 22.1109 26.5218 21.4171C28.661 19.1334 31.2627 17.3412 34.2112 16.2138C35.1073 15.8669 36.0035 15.5778 36.9285 15.3755C38.4606 14.9997 40.0505 14.8262 41.6693 14.8262C45.4273 14.8262 49.0407 15.838 52.1916 17.6881C52.1627 17.6592 52.1338 17.6303 52.1049 17.6014C52.076 17.5724 52.0182 17.5146 51.9892 17.4857L51.9603 17.4568C51.9314 17.4279 51.8736 17.399 51.8447 17.3412C51.8158 17.3123 51.758 17.2834 51.7291 17.2256C51.7291 17.2256 51.7291 17.2256 51.7002 17.1966C51.6424 17.1677 51.6134 17.1099 51.5556 17.081L51.4978 17.0232L51.4689 16.9943C51.4111 16.9365 51.3533 16.8787 51.2666 16.8209C51.1798 16.763 51.122 16.7052 51.0642 16.6474C51.0353 16.6185 51.0064 16.6185 51.0064 16.5896C50.9486 16.5607 50.9197 16.5029 50.8619 16.474L50.7751 16.3872L50.7173 16.3294L50.6884 16.3005L50.6595 16.2716C50.6017 16.2138 50.5439 16.1849 50.4861 16.1271C50.4572 16.0982 50.3993 16.0693 50.3704 16.0114C50.2259 15.8958 50.0814 15.7802 49.9657 15.6935C49.9368 15.6646 49.879 15.6356 49.8501 15.6067L49.7923 15.5778L49.7634 15.5489C49.7634 15.5489 49.7634 15.5489 49.7345 15.5489L49.6477 15.4911L49.6188 15.4622L49.5032 15.3755L49.4743 15.3466C49.4454 15.3177 49.4454 15.3177 49.4165 15.2888L49.3876 15.2599C49.3587 15.2309 49.3009 15.202 49.2719 15.1731L49.243 15.1442C49.1274 15.0575 49.0407 14.9997 48.9251 14.913C48.8672 14.8841 48.8383 14.8551 48.7805 14.8262L48.7516 14.7973C48.6938 14.7395 48.6071 14.7106 48.5493 14.6528C48.5204 14.6528 48.5204 14.6239 48.4915 14.6239C48.4336 14.595 48.3758 14.5661 48.3469 14.5372C48.2602 14.4794 48.2024 14.4504 48.1157 14.3926C48.0289 14.3348 47.9711 14.3059 47.8844 14.2481L47.7688 14.1614C47.7399 14.1614 47.7399 14.1325 47.711 14.1325C47.682 14.1325 47.6531 14.1036 47.6242 14.1036C47.5953 14.1036 47.5953 14.0747 47.5664 14.0747C47.5086 14.0457 47.4508 14.0168 47.393 13.9879L47.3641 13.959C47.3352 13.959 47.3352 13.9301 47.3063 13.9301C47.2484 13.9012 47.1906 13.8723 47.1617 13.8434C47.1617 13.8434 47.1617 13.8434 47.1328 13.8434C46.7859 13.641 46.4101 13.4676 46.0632 13.2652H46.0343C45.9476 13.2363 45.8609 13.1785 45.8031 13.1496L45.2538 12.9184C45.2538 12.9184 45.2538 12.9184 45.2249 12.9184C44.9648 12.8027 44.7335 12.6871 44.5022 12.6004C44.4444 12.5715 44.3866 12.5426 44.3288 12.5426H44.2999H44.271L44.1843 12.5137C44.1553 12.5137 44.1264 12.4847 44.0686 12.4847C44.0397 12.4847 44.0397 12.4847 44.0108 12.4558C43.7795 12.3691 43.5772 12.2824 43.4038 12.2246L43.2881 12.1957H43.2592L43.1436 12.1668C42.8256 12.0511 42.5365 11.9355 42.1896 11.8488C42.1896 11.8488 42.1896 11.8488 42.1607 11.8488C42.1029 11.8199 42.0451 11.8199 41.9873 11.791C41.9295 11.7621 41.8717 11.7621 41.8139 11.7332C41.7849 11.7332 41.7271 11.7042 41.6982 11.7042C41.5537 11.6753 41.4381 11.6175 41.2935 11.5886C41.2646 11.5886 41.2646 11.5886 41.2357 11.5886C41.2357 11.4152 41.2068 11.4152 41.1779 11.4152H41.149H41.1201C40.8599 11.3574 40.5997 11.2706 40.3107 11.2128C40.1661 11.1839 39.9927 11.155 39.8481 11.0972C39.588 11.0394 39.2989 10.9816 39.0387 10.9237C38.952 10.8948 38.8364 10.8948 38.7497 10.8659C38.6629 10.837 38.5473 10.837 38.4606 10.8081C38.4028 10.8081 38.3739 10.8081 38.3161 10.7792C38.2582 10.7792 38.2004 10.7503 38.1426 10.7503C37.8535 10.7214 37.5645 10.6636 37.2754 10.6347C36.7262 10.5769 36.148 10.548 35.5988 10.519C35.2808 10.548 34.9628 10.548 34.6448 10.548C34.1245 10.548 33.5752 10.5769 33.0549 10.6058C32.9971 10.6058 32.9393 10.6058 32.8815 10.6058C32.3033 10.6347 31.7252 10.6925 31.147 10.7792C31.0314 10.8081 30.9447 10.8081 30.829 10.837L9.98683 31.6792Z" fill="url(#paint0_linear_389_3648)"/>
<path d="M59.3071 39.2828V39.2539C59.3071 39.225 59.3071 39.1961 59.336 39.1382V39.1093C59.336 39.0515 59.3649 39.0226 59.3649 38.9648V38.9359V38.907C59.3649 38.8781 59.3649 38.8781 59.3649 38.8781L59.3938 38.7335L59.4227 38.6179C59.4227 38.5023 59.4516 38.4156 59.4516 38.3288C59.4516 38.2421 59.4806 38.1554 59.4806 38.0687C59.4806 37.9819 59.5095 37.9241 59.5095 37.8663V37.8085C59.5095 37.7507 59.5095 37.7218 59.5095 37.664V37.6351V37.6062C59.5095 37.5483 59.5095 37.4905 59.5384 37.4038V37.3749C59.5384 37.2882 59.5673 37.2015 59.5673 37.0858C59.5673 36.9991 59.5673 36.8835 59.5962 36.7967V36.7678V36.7389V36.71C59.5962 36.6233 59.5962 36.5366 59.5962 36.4788C59.5962 36.3631 59.5962 36.2764 59.5962 36.1608V36.103C59.5962 36.0162 59.5962 35.9584 59.5962 35.8717V35.6983C59.5962 35.6405 59.5962 35.5826 59.5962 35.4959C59.5962 35.4381 59.5962 35.3514 59.5962 35.2936V35.2357C59.5384 30.4949 57.6305 26.0432 54.2483 22.7189C50.8662 19.3945 46.3855 17.5444 41.6158 17.5444C40.5173 17.5444 39.4188 17.6312 38.3782 17.8335C40.8353 19.3078 42.9744 21.3024 44.6511 23.7017C47.0793 27.1706 48.3512 31.2465 48.3512 35.5248C48.3512 39.7742 47.0793 43.8501 44.6511 47.3479C42.2807 50.7301 38.9852 53.3318 35.1405 54.806C32.7701 55.7311 30.2552 56.1936 27.6824 56.1936C23.9245 56.1936 20.3111 55.1818 17.1602 53.3318H17.1891C17.218 53.3607 17.218 53.3607 17.2469 53.3896L17.3047 53.4474C17.3336 53.4763 17.3914 53.5341 17.4203 53.563C17.4781 53.6208 17.5649 53.7076 17.6516 53.7654C17.7094 53.8232 17.7672 53.8521 17.7961 53.9099C17.8828 53.9966 17.9696 54.0834 18.0852 54.1701C18.143 54.2279 18.2008 54.2857 18.2586 54.3435L18.2875 54.3724L18.461 54.517L18.4899 54.5459C18.5477 54.5748 18.5766 54.6326 18.6344 54.6615L18.6633 54.6904L18.6922 54.7193C18.7212 54.7482 18.779 54.806 18.8368 54.8349H18.8657H18.8946C18.9235 54.8639 18.9813 54.8928 19.0102 54.9217C19.1548 55.0373 19.2704 55.124 19.4149 55.2397C19.4438 55.2686 19.4727 55.2975 19.5017 55.2975C19.5306 55.3264 19.5595 55.3553 19.6173 55.3842C19.6462 55.4131 19.6462 55.4131 19.6751 55.4131L19.704 55.442C19.7618 55.4709 19.8196 55.5287 19.8774 55.5576L19.9353 55.5865C19.9642 55.6155 19.9931 55.6154 20.022 55.6444C20.0509 55.6733 20.1087 55.7022 20.1376 55.7311L20.1954 55.76C20.3111 55.8467 20.3978 55.9045 20.5134 55.9912C20.5712 56.0202 20.6001 56.0491 20.6579 56.078L20.6869 56.1069L20.8025 56.1936L20.9181 56.2803C20.9759 56.3092 21.0337 56.367 21.1205 56.396C21.1783 56.4249 21.265 56.4827 21.3228 56.5116H21.5541L21.8432 56.7717C21.8721 56.8007 21.9299 56.8296 21.9877 56.8585C22.0744 56.9163 22.1611 56.9741 22.2479 57.003C22.3057 57.0319 22.3924 57.0897 22.4502 57.1186C22.826 57.321 23.2018 57.5233 23.5776 57.6968C23.6643 57.7257 23.751 57.7835 23.8378 57.8124C23.8378 57.8124 23.8667 57.8124 23.8667 57.8413C23.9534 57.8702 24.0112 57.928 24.0979 57.9569C24.3292 58.0726 24.5604 58.1882 24.8206 58.2749C24.8784 58.3038 24.9362 58.3327 24.9941 58.3616C25.023 58.3616 25.023 58.3906 25.0519 58.3906C25.1386 58.4195 25.1964 58.4484 25.2831 58.4773C25.4855 58.564 25.6878 58.6218 25.8902 58.7085C25.948 58.7374 26.0347 58.7663 26.0925 58.7953C26.4105 58.9109 26.7285 59.0265 27.0176 59.1132C27.0754 59.1422 27.1332 59.1421 27.191 59.1711C27.2777 59.2 27.3645 59.2289 27.4801 59.2578L27.5668 59.2867C27.6824 59.3156 27.7981 59.3445 27.8848 59.3734C27.9426 59.4023 28.0004 59.4023 28.0582 59.4312C28.752 59.6047 29.4458 59.7781 30.1396 59.8937C30.2263 59.9226 30.313 59.9226 30.4286 59.9516C30.5443 59.9805 30.631 59.9805 30.7177 60.0094C30.8044 60.0383 30.9201 60.0383 31.0068 60.0383C32.1631 60.2117 33.3194 60.2695 34.5046 60.2695C35.6609 60.2695 36.8461 60.1828 38.0024 60.0383H38.0313C38.118 60.0383 38.2047 60.0094 38.3204 60.0094L59.1626 39.1672C59.3071 39.2828 59.3071 39.2828 59.3071 39.2828Z" fill="url(#paint1_linear_389_3648)"/>
</g>
<path d="M93.3281 42H90.2578V31.9922L84.8555 41.4961C84.7227 41.7383 84.5352 41.9219 84.293 42.0469C84.0586 42.1719 83.8047 42.2344 83.5312 42.2344C83.2656 42.2344 83.0156 42.1719 82.7812 42.0469C82.5547 41.9219 82.375 41.7383 82.2422 41.4961L76.8164 31.9922V42H73.7695V26.4961C73.7695 26.1445 73.8711 25.832 74.0742 25.5586C74.2852 25.2852 74.5586 25.1016 74.8945 25.0078C75.0586 24.9688 75.2227 24.957 75.3867 24.9727C75.5508 24.9805 75.707 25.0156 75.8555 25.0781C76.0117 25.1328 76.1523 25.2148 76.2773 25.3242C76.4023 25.4258 76.5078 25.5508 76.5938 25.6992L83.5312 37.7578L90.4688 25.6992C90.6484 25.4023 90.8945 25.1914 91.207 25.0664C91.5273 24.9414 91.8594 24.9219 92.2031 25.0078C92.5312 25.1016 92.8008 25.2852 93.0117 25.5586C93.2227 25.832 93.3281 26.1445 93.3281 26.4961V42ZM113.367 42H110.32V37.875H99.6094V42H96.5625V33.5977C96.5625 32.3711 96.7734 31.2422 97.1953 30.2109C97.6172 29.1797 98.2031 28.293 98.9531 27.5508C99.7031 26.8086 100.59 26.2305 101.613 25.8164C102.637 25.4023 103.754 25.1953 104.965 25.1953H111.832C112.043 25.1953 112.242 25.2344 112.43 25.3125C112.617 25.3906 112.781 25.5 112.922 25.6406C113.062 25.7812 113.172 25.9453 113.25 26.1328C113.328 26.3203 113.367 26.5195 113.367 26.7305V42ZM99.6094 34.8281H110.32V28.2422H104.965C104.871 28.2422 104.672 28.2578 104.367 28.2891C104.07 28.3125 103.723 28.3789 103.324 28.4883C102.934 28.5977 102.52 28.7656 102.082 28.9922C101.645 29.2188 101.242 29.5312 100.875 29.9297C100.508 30.3281 100.203 30.8281 99.9609 31.4297C99.7266 32.0234 99.6094 32.7461 99.6094 33.5977V34.8281ZM133.711 40.6992C133.711 40.918 133.668 41.1211 133.582 41.3086C133.504 41.4961 133.395 41.6602 133.254 41.8008C133.121 41.9336 132.961 42.0391 132.773 42.1172C132.586 42.1953 132.387 42.2344 132.176 42.2344C131.988 42.2344 131.797 42.1992 131.602 42.1289C131.414 42.0586 131.246 41.9453 131.098 41.7891L119.965 30.1641V42H116.918V26.4961C116.918 26.1836 117.004 25.9023 117.176 25.6523C117.355 25.3945 117.582 25.2031 117.855 25.0781C118.145 24.9609 118.441 24.9336 118.746 24.9961C119.051 25.0508 119.312 25.1914 119.531 25.418L130.664 37.0312V25.1953H133.711V40.6992ZM151.078 35.1328H141.457V32.0625H151.078V35.1328ZM152.449 42H141.457C141.035 42 140.574 41.9258 140.074 41.7773C139.574 41.6289 139.109 41.3867 138.68 41.0508C138.258 40.707 137.902 40.2656 137.613 39.7266C137.332 39.1797 137.191 38.5117 137.191 37.7227V26.7305C137.191 26.5195 137.23 26.3203 137.309 26.1328C137.387 25.9453 137.492 25.7812 137.625 25.6406C137.766 25.5 137.93 25.3906 138.117 25.3125C138.305 25.2344 138.508 25.1953 138.727 25.1953H152.449V28.2422H140.238V37.7227C140.238 38.1211 140.344 38.4258 140.555 38.6367C140.766 38.8477 141.074 38.9531 141.48 38.9531H152.449V42ZM172.195 30.8438C172.195 31.5391 172.109 32.1602 171.938 32.707C171.766 33.2539 171.531 33.7383 171.234 34.1602C170.945 34.5742 170.609 34.9297 170.227 35.2266C169.844 35.5234 169.441 35.7695 169.02 35.9648C168.605 36.1523 168.184 36.2891 167.754 36.375C167.332 36.4609 166.934 36.5039 166.559 36.5039L172.922 42H168.211L161.859 36.5039H159.668V33.457H166.559C166.941 33.4258 167.289 33.3477 167.602 33.2227C167.922 33.0898 168.195 32.9141 168.422 32.6953C168.656 32.4766 168.836 32.2148 168.961 31.9102C169.086 31.5977 169.148 31.2422 169.148 30.8438V28.9219C169.148 28.75 169.125 28.6211 169.078 28.5352C169.039 28.4414 168.984 28.375 168.914 28.3359C168.852 28.2891 168.781 28.2617 168.703 28.2539C168.633 28.2461 168.566 28.2422 168.504 28.2422H158.449V42H155.402V26.7305C155.402 26.5195 155.441 26.3203 155.52 26.1328C155.598 25.9453 155.703 25.7812 155.836 25.6406C155.977 25.5 156.141 25.3906 156.328 25.3125C156.516 25.2344 156.719 25.1953 156.938 25.1953H168.504C169.184 25.1953 169.758 25.3203 170.227 25.5703C170.695 25.8125 171.074 26.1211 171.363 26.4961C171.66 26.8633 171.871 27.2617 171.996 27.6914C172.129 28.1211 172.195 28.5234 172.195 28.8984V30.8438ZM192.891 35.2031C192.891 36.2266 192.715 37.168 192.363 38.0273C192.012 38.8867 191.523 39.6289 190.898 40.2539C190.273 40.8789 189.531 41.3672 188.672 41.7188C187.82 42.0625 186.891 42.2344 185.883 42.2344H181.758C180.75 42.2344 179.816 42.0625 178.957 41.7188C178.098 41.3672 177.355 40.8789 176.73 40.2539C176.105 39.6289 175.613 38.8867 175.254 38.0273C174.902 37.168 174.727 36.2266 174.727 35.2031V31.9922C174.727 30.9766 174.902 30.0391 175.254 29.1797C175.613 28.3125 176.105 27.5703 176.73 26.9531C177.355 26.3281 178.098 25.8398 178.957 25.4883C179.816 25.1367 180.75 24.9609 181.758 24.9609H185.883C186.891 24.9609 187.82 25.1367 188.672 25.4883C189.531 25.8398 190.273 26.3281 190.898 26.9531C191.523 27.5703 192.012 28.3125 192.363 29.1797C192.715 30.0391 192.891 30.9766 192.891 31.9922V35.2031ZM189.844 31.9922C189.844 31.3906 189.746 30.8477 189.551 30.3633C189.363 29.8711 189.094 29.4531 188.742 29.1094C188.398 28.7578 187.98 28.4883 187.488 28.3008C187.004 28.1055 186.469 28.0078 185.883 28.0078H181.758C181.164 28.0078 180.621 28.1055 180.129 28.3008C179.645 28.4883 179.227 28.7578 178.875 29.1094C178.523 29.4531 178.25 29.8711 178.055 30.3633C177.867 30.8477 177.773 31.3906 177.773 31.9922V35.2031C177.773 35.8047 177.867 36.3516 178.055 36.8438C178.25 37.3281 178.523 37.7461 178.875 38.0977C179.227 38.4414 179.645 38.7109 180.129 38.9062C180.621 39.0938 181.164 39.1875 181.758 39.1875H185.859C186.453 39.1875 186.992 39.0938 187.477 38.9062C187.969 38.7109 188.391 38.4414 188.742 38.0977C189.094 37.7461 189.363 37.3281 189.551 36.8438C189.746 36.3516 189.844 35.8047 189.844 35.2031V31.9922Z" fill="black"/>
<defs>
<linearGradient id="paint0_linear_389_3648" x1="28.4081" y1="8.46854" x2="22.8643" y2="46.5821" gradientUnits="userSpaceOnUse">
<stop stop-color="#8204FF"/>
<stop offset="1" stop-color="#FF7952"/>
</linearGradient>
<linearGradient id="paint1_linear_389_3648" x1="42.9646" y1="18.8641" x2="24.2543" y2="60.4425" gradientUnits="userSpaceOnUse">
<stop stop-color="#FF7952"/>
<stop offset="1" stop-color="#8204FF"/>
</linearGradient>
<clipPath id="clip0_389_3648">
<rect width="49.8941" height="49.8941" fill="white" transform="translate(9.69849 10.5513)"/>
</clipPath>
</defs>
</svg>
